<svg width="40" height="40" viewBox="0 0 40 40" fill="none" xmlns="http://www.w3.org/2000/svg">
<mask id="path-1-outside-1_364_160" maskUnits="userSpaceOnUse" x="6" y="5" width="29" height="29" fill="black">
<rect fill="white" x="6" y="5" width="29" height="29"/>
<path d="M31.1719 26.75C31.1458 27.4922 31.1328 28.5469 31.1328 29.9141C31.1328 31.2682 31.0482 32.069 30.8789 32.3164C30.7227 32.5508 30.3125 32.668 29.6484 32.668C29.4271 32.668 28.8737 32.4271 27.9883 31.9453C27.1029 31.4505 26.3021 30.7604 25.5859 29.875C25.2865 29.5104 23.3594 26.7305 19.8047 21.5352C16.25 16.3398 14.1536 13.7422 13.5156 13.7422C13.2552 13.7422 13.125 15.513 13.125 19.0547C13.125 22.5833 13.3789 25.7604 13.8867 28.5859C14.0299 29.3802 14.2773 30.0247 14.6289 30.5195C14.9935 31.0143 15.1758 31.4245 15.1758 31.75L15.0195 32.1992C14.6419 32.6419 13.3919 32.8633 11.2695 32.8633H10.4297C8.75 32.8633 7.75391 32.7396 7.44141 32.4922C7.12891 32.2448 6.97266 31.8737 6.97266 31.3789C6.97266 31.1055 7.33073 30.7539 8.04688 30.3242C8.77604 29.8815 9.21224 29.4453 9.35547 29.0156C9.43359 28.7812 9.47266 27.6224 9.47266 25.5391L9.51172 24.6016L9.57031 21.7891C9.60938 19.9271 9.62891 17.8112 9.62891 15.4414C9.62891 13.0586 9.53776 11.5677 9.35547 10.9688C9.1862 10.3568 8.71094 9.76432 7.92969 9.19141C7.14844 8.60547 6.75781 8.07812 6.75781 7.60938C6.75781 7.1276 6.9401 6.76302 7.30469 6.51562C7.68229 6.25521 8.40495 6.125 9.47266 6.125H10.3516C12.4609 6.125 14.3359 7.01693 15.9766 8.80078C17.6172 10.5846 19.8047 13.4688 22.5391 17.4531C25.2865 21.4375 26.8685 23.4297 27.2852 23.4297C27.7799 23.4297 28.0273 20.8646 28.0273 15.7344C28.0273 11.9193 27.6042 9.51693 26.7578 8.52734C26.276 7.95443 26.0352 7.55729 26.0352 7.33594C26.0352 6.75 26.6276 6.45703 27.8125 6.45703C30.1823 6.45703 31.8099 6.5612 32.6953 6.76953C33.5938 6.96484 34.043 7.38151 34.043 8.01953C34.043 8.39714 33.6523 8.98307 32.8711 9.77734C32.1029 10.5586 31.6797 11.112 31.6016 11.4375C31.5234 11.75 31.4844 13.2604 31.4844 15.9688L31.2305 25.0312L31.2109 25.8906L31.1719 26.75Z"/>
</mask>
<path d="M31.1719 26.75C31.1458 27.4922 31.1328 28.5469 31.1328 29.9141C31.1328 31.2682 31.0482 32.069 30.8789 32.3164C30.7227 32.5508 30.3125 32.668 29.6484 32.668C29.4271 32.668 28.8737 32.4271 27.9883 31.9453C27.1029 31.4505 26.3021 30.7604 25.5859 29.875C25.2865 29.5104 23.3594 26.7305 19.8047 21.5352C16.25 16.3398 14.1536 13.7422 13.5156 13.7422C13.2552 13.7422 13.125 15.513 13.125 19.0547C13.125 22.5833 13.3789 25.7604 13.8867 28.5859C14.0299 29.3802 14.2773 30.0247 14.6289 30.5195C14.9935 31.0143 15.1758 31.4245 15.1758 31.75L15.0195 32.1992C14.6419 32.6419 13.3919 32.8633 11.2695 32.8633H10.4297C8.75 32.8633 7.75391 32.7396 7.44141 32.4922C7.12891 32.2448 6.97266 31.8737 6.97266 31.3789C6.97266 31.1055 7.33073 30.7539 8.04688 30.3242C8.77604 29.8815 9.21224 29.4453 9.35547 29.0156C9.43359 28.7812 9.47266 27.6224 9.47266 25.5391L9.51172 24.6016L9.57031 21.7891C9.60938 19.9271 9.62891 17.8112 9.62891 15.4414C9.62891 13.0586 9.53776 11.5677 9.35547 10.9688C9.1862 10.3568 8.71094 9.76432 7.92969 9.19141C7.14844 8.60547 6.75781 8.07812 6.75781 7.60938C6.75781 7.1276 6.9401 6.76302 7.30469 6.51562C7.68229 6.25521 8.40495 6.125 9.47266 6.125H10.3516C12.4609 6.125 14.3359 7.01693 15.9766 8.80078C17.6172 10.5846 19.8047 13.4688 22.5391 17.4531C25.2865 21.4375 26.8685 23.4297 27.2852 23.4297C27.7799 23.4297 28.0273 20.8646 28.0273 15.7344C28.0273 11.9193 27.6042 9.51693 26.7578 8.52734C26.276 7.95443 26.0352 7.55729 26.0352 7.33594C26.0352 6.75 26.6276 6.45703 27.8125 6.45703C30.1823 6.45703 31.8099 6.5612 32.6953 6.76953C33.5938 6.96484 34.043 7.38151 34.043 8.01953C34.043 8.39714 33.6523 8.98307 32.8711 9.77734C32.1029 10.5586 31.6797 11.112 31.6016 11.4375C31.5234 11.75 31.4844 13.2604 31.4844 15.9688L31.2305 25.0312L31.2109 25.8906L31.1719 26.75Z" fill="#503E2E"/>
<path d="M31.1719 26.75L30.5725 26.7228L30.5722 26.729L31.1719 26.75ZM30.8789 32.3164L30.3837 31.9776L30.3797 31.9836L30.8789 32.3164ZM27.9883 31.9453L27.6956 32.4691L27.7015 32.4723L27.9883 31.9453ZM25.5859 29.875L26.0525 29.4977L26.0496 29.4942L25.5859 29.875ZM13.8867 28.5859L13.2962 28.6921L13.2962 28.6924L13.8867 28.5859ZM14.6289 30.5195L14.1397 30.8671L14.1459 30.8755L14.6289 30.5195ZM15.1758 31.75L15.7425 31.9471L15.7758 31.8514V31.75H15.1758ZM15.0195 32.1992L15.476 32.5886L15.5492 32.5028L15.5862 32.3963L15.0195 32.1992ZM8.04688 30.3242L8.35558 30.8387L8.35826 30.8371L8.04688 30.3242ZM9.47266 25.5391L8.87318 25.5141L8.87266 25.5266V25.5391H9.47266ZM9.51172 24.6016L10.1113 24.6265L10.1116 24.6141L9.51172 24.6016ZM9.57031 21.7891L8.97044 21.7765L8.97044 21.7766L9.57031 21.7891ZM9.35547 10.9688L8.77718 11.1287L8.77923 11.1361L8.78146 11.1434L9.35547 10.9688ZM7.92969 9.19141L7.56967 9.67143L7.57487 9.67525L7.92969 9.19141ZM7.30469 6.51562L7.6416 7.01212L7.64533 7.00955L7.30469 6.51562ZM22.5391 17.4531L22.0444 17.7926L22.0451 17.7937L22.5391 17.4531ZM26.7578 8.52734L26.2986 8.91352L26.3018 8.91732L26.7578 8.52734ZM32.6953 6.76953L32.5579 7.35367L32.5679 7.35584L32.6953 6.76953ZM32.8711 9.77734L32.4433 9.3566L32.4433 9.35666L32.8711 9.77734ZM31.6016 11.4375L32.1837 11.583L32.185 11.5775L31.6016 11.4375ZM31.4844 15.9688L32.0841 15.9856L32.0844 15.9772V15.9688H31.4844ZM31.2305 25.0312L30.6307 25.0144L30.6306 25.0176L31.2305 25.0312ZM31.2109 25.8906L31.8105 25.9179L31.8108 25.9043L31.2109 25.8906ZM30.5722 26.729C30.5458 27.4817 30.5328 28.5446 30.5328 29.9141H31.7328C31.7328 28.5491 31.7458 27.5027 31.7715 26.771L30.5722 26.729ZM30.5328 29.9141C30.5328 30.5822 30.5118 31.0971 30.4727 31.4672C30.4531 31.6526 30.4301 31.7898 30.4069 31.8858C30.3808 31.9934 30.3644 32.0058 30.3837 31.9776L31.3741 32.6552C31.478 32.5033 31.5357 32.3228 31.5731 32.1684C31.6133 32.0024 31.6433 31.8084 31.666 31.5933C31.7115 31.1627 31.7328 30.6001 31.7328 29.9141H30.5328ZM30.3797 31.9836C30.4124 31.9346 30.4252 31.9643 30.2893 32.0032C30.1589 32.0404 29.952 32.068 29.6484 32.068V33.268C30.0089 33.268 30.3392 33.2369 30.6189 33.157C30.8932 33.0786 31.1892 32.9326 31.3781 32.6492L30.3797 31.9836ZM29.6484 32.068C29.6843 32.068 29.677 32.0743 29.5983 32.0499C29.5297 32.0285 29.4338 31.9924 29.3069 31.9372C29.0533 31.8268 28.7111 31.6555 28.275 31.4183L27.7015 32.4723C28.1509 32.7169 28.528 32.9069 28.8279 33.0374C28.9776 33.1026 29.1169 33.1569 29.242 33.1957C29.357 33.2315 29.5019 33.268 29.6484 33.268V32.068ZM28.281 31.4215C27.47 30.9684 26.7264 30.3309 26.0524 29.4977L25.1194 30.2523C25.8778 31.1899 26.7357 31.9327 27.6956 32.4691L28.281 31.4215ZM26.0496 29.4942C25.7721 29.1564 23.869 26.4128 20.2999 21.1963L19.3095 21.874C22.8497 27.0481 24.8008 29.8644 25.1223 30.2558L26.0496 29.4942ZM20.2999 21.1963C18.5199 18.5949 17.0966 16.6311 16.0333 15.3136C15.5032 14.6567 15.051 14.1459 14.6808 13.7942C14.4966 13.6192 14.3183 13.4697 14.1494 13.3604C13.999 13.2629 13.7744 13.1422 13.5156 13.1422V14.3422C13.4163 14.3422 13.3968 14.3026 13.4971 14.3675C13.5788 14.4205 13.6968 14.5146 13.8543 14.6642C14.1678 14.962 14.5814 15.4253 15.0995 16.0672C16.1326 17.3474 17.5348 19.2801 19.3095 21.874L20.2999 21.1963ZM13.5156 13.1422C13.1098 13.1422 12.929 13.4761 12.8906 13.5506C12.8265 13.6751 12.7869 13.8179 12.7588 13.945C12.7004 14.2097 12.6573 14.5766 12.6243 15.0263C12.5575 15.9345 12.525 17.2806 12.525 19.0547H13.725C13.725 17.2872 13.7576 15.977 13.821 15.1143C13.8531 14.6786 13.8914 14.3814 13.9306 14.2035C13.9514 14.1092 13.9647 14.086 13.9576 14.0998C13.954 14.1067 13.9294 14.1548 13.8713 14.2074C13.8066 14.2661 13.6848 14.3422 13.5156 14.3422V13.1422ZM12.525 19.0547C12.525 22.6112 12.7808 25.8247 13.2962 28.6921L14.4773 28.4798C13.977 25.6962 13.725 22.5555 13.725 19.0547H12.525ZM13.2962 28.6924C13.4502 29.5462 13.7232 30.2807 14.1398 30.8671L15.118 30.172C14.8315 29.7687 14.6097 29.2142 14.4772 28.4795L13.2962 28.6924ZM14.1459 30.8755C14.4924 31.3457 14.5758 31.6242 14.5758 31.75H15.7758C15.7758 31.2247 15.4946 30.6829 15.1119 30.1636L14.1459 30.8755ZM14.6091 31.5529L14.4528 32.0021L15.5862 32.3963L15.7425 31.9471L14.6091 31.5529ZM14.563 31.8099C14.5546 31.8198 14.5022 31.8705 14.3461 31.9342C14.1951 31.9958 13.9816 32.0556 13.6942 32.1065C13.119 32.2083 12.3156 32.2633 11.2695 32.2633V33.4633C12.3458 33.4633 13.2286 33.4076 13.9035 33.2881C14.241 33.2283 14.5435 33.1497 14.7994 33.0453C15.0502 32.943 15.2957 32.8 15.476 32.5886L14.563 31.8099ZM11.2695 32.2633H10.4297V33.4633H11.2695V32.2633ZM10.4297 32.2633C9.6005 32.2633 8.95948 32.2325 8.49679 32.1751C8.26527 32.1463 8.09155 32.1124 7.96765 32.0773C7.83393 32.0394 7.8012 32.0118 7.81383 32.0218L7.06898 32.9626C7.23786 33.0963 7.44683 33.1769 7.64026 33.2318C7.84351 33.2894 8.08239 33.3328 8.34891 33.3659C8.88232 33.4322 9.57919 33.4633 10.4297 33.4633V32.2633ZM7.81383 32.0218C7.67938 31.9153 7.57266 31.7391 7.57266 31.3789H6.37266C6.37266 32.0083 6.57843 32.5743 7.06898 32.9626L7.81383 32.0218ZM7.57266 31.3789C7.57266 31.494 7.51035 31.4868 7.66157 31.3383C7.79206 31.2102 8.01505 31.043 8.35557 30.8387L7.73818 29.8097C7.36255 30.0351 7.04844 30.2586 6.82086 30.482C6.61399 30.6851 6.37266 30.9903 6.37266 31.3789H7.57266ZM8.35826 30.8371C9.11513 30.3776 9.71099 29.8464 9.92468 29.2054L8.78626 28.8259C8.71349 29.0442 8.43695 29.3855 7.73549 29.8113L8.35826 30.8371ZM9.92468 29.2054C9.97032 29.0684 9.99075 28.8817 10.0046 28.7168C10.0205 28.5283 10.0331 28.2851 10.043 27.9909C10.0629 27.4015 10.0727 26.5831 10.0727 25.5391H8.87266C8.87266 26.5784 8.86289 27.3811 8.8437 27.9505C8.83408 28.2358 8.82229 28.4564 8.80885 28.6162C8.79343 28.7996 8.77968 28.8456 8.78626 28.8259L9.92468 29.2054ZM10.0721 25.564L10.1112 24.6265L8.91224 24.5766L8.87318 25.5141L10.0721 25.564ZM10.1116 24.6141L10.1702 21.8016L8.97044 21.7766L8.91185 24.5891L10.1116 24.6141ZM10.1702 21.8016C10.2094 19.9345 10.2289 17.8143 10.2289 15.4414H9.02891C9.02891 17.8081 9.0094 19.9196 8.97044 21.7765L10.1702 21.8016ZM10.2289 15.4414C10.2289 14.244 10.206 13.2621 10.1594 12.4995C10.1138 11.7538 10.0433 11.1679 9.92947 10.7941L8.78146 11.1434C8.84997 11.3685 8.91611 11.8275 8.96166 12.5727C9.00619 13.301 9.02891 14.256 9.02891 15.4414H10.2289ZM9.93376 10.8088C9.71394 10.0141 9.12021 9.32041 8.28451 8.70756L7.57487 9.67525C8.30167 10.2082 8.65845 10.6994 8.77718 11.1287L9.93376 10.8088ZM8.28969 8.71141C7.92519 8.43803 7.68126 8.19957 7.53292 7.99931C7.38431 7.7987 7.35781 7.67273 7.35781 7.60938H6.15781C6.15781 8.01477 6.32662 8.38685 6.56865 8.71358C6.81093 9.04066 7.15294 9.35884 7.56969 9.67141L8.28969 8.71141ZM7.35781 7.60938C7.35781 7.30459 7.45889 7.13609 7.64159 7.01211L6.96779 6.01914C6.42132 6.38996 6.15781 6.95062 6.15781 7.60938H7.35781ZM7.64533 7.00955C7.73411 6.94832 7.91424 6.87117 8.23628 6.81315C8.55063 6.75651 8.95997 6.725 9.47266 6.725V5.525C8.91763 5.525 8.43179 5.5586 8.02349 5.63216C7.62287 5.70435 7.25287 5.82251 6.96405 6.0217L7.64533 7.00955ZM9.47266 6.725H10.3516V5.525H9.47266V6.725ZM10.3516 6.725C12.2675 6.725 13.9893 7.52639 15.5349 9.20695L16.4182 8.39462C14.6826 6.50746 12.6544 5.525 10.3516 5.525V6.725ZM15.5349 9.20695C17.1456 10.9582 19.3136 13.8135 22.0444 17.7926L23.0338 17.1136C20.2958 13.124 18.0888 10.211 16.4182 8.39462L15.5349 9.20695ZM22.0451 17.7937C23.421 19.789 24.5124 21.2965 25.3163 22.3087C25.7167 22.813 26.0562 23.2077 26.3306 23.4811C26.4666 23.6167 26.6008 23.7368 26.7291 23.827C26.8299 23.8979 27.0332 24.0297 27.2852 24.0297V22.8297C27.4329 22.8297 27.4957 22.8992 27.4195 22.8456C27.3708 22.8113 27.2915 22.7446 27.1777 22.6312C26.9524 22.4066 26.6466 22.0542 26.256 21.5624C25.4778 20.5824 24.4046 19.1016 23.033 17.1125L22.0451 17.7937ZM27.2852 24.0297C27.64 24.0297 27.856 23.7939 27.9564 23.6452C28.062 23.4888 28.1331 23.299 28.1862 23.1155C28.2949 22.74 28.3763 22.2143 28.439 21.5635C28.5656 20.2512 28.6273 18.3038 28.6273 15.7344H27.4273C27.4273 18.2951 27.3654 20.1955 27.2446 21.4483C27.1836 22.0799 27.1104 22.5162 27.0335 22.782C27.015 22.8459 26.9981 22.8936 26.9838 22.9278C26.969 22.963 26.9606 22.9755 26.9618 22.9737C26.962 22.9734 26.9832 22.9411 27.0339 22.9061C27.0906 22.8668 27.1777 22.8297 27.2852 22.8297V24.0297ZM28.6273 15.7344C28.6273 13.8091 28.5209 12.2163 28.3009 10.9672C28.0844 9.73819 27.7445 8.7579 27.2138 8.13736L26.3018 8.91732C26.6175 9.28637 26.9124 10.002 27.1191 11.1754C27.3222 12.3287 27.4273 13.8446 27.4273 15.7344H28.6273ZM27.217 8.14118C26.9856 7.86591 26.8267 7.64992 26.7288 7.48864C26.6153 7.30145 26.6352 7.26945 26.6352 7.33594H25.4352C25.4352 7.62378 25.5755 7.90102 25.7028 8.11097C25.8459 8.34682 26.0483 8.61586 26.2986 8.9135L27.217 8.14118ZM26.6352 7.33594C26.6352 7.29581 26.6435 7.28719 26.6438 7.28678C26.6468 7.28229 26.668 7.25289 26.7455 7.21459C26.9171 7.12969 27.2502 7.05703 27.8125 7.05703V5.85703C27.1899 5.85703 26.6343 5.93085 26.2135 6.13892C25.9948 6.24711 25.7938 6.40082 25.6487 6.61605C25.5009 6.83536 25.4352 7.08309 25.4352 7.33594H26.6352ZM27.8125 7.05703C30.1868 7.05703 31.749 7.16325 32.5579 7.35358L32.8327 6.18548C31.8708 5.95915 30.1777 5.85703 27.8125 5.85703V7.05703ZM32.5679 7.35584C32.9609 7.44127 33.1821 7.56086 33.298 7.66842C33.3946 7.75802 33.443 7.85969 33.443 8.01953H34.643C34.643 7.54135 34.4667 7.11567 34.1141 6.78861C33.7808 6.47951 33.3282 6.2931 32.8228 6.18323L32.5679 7.35584ZM33.443 8.01953C33.443 8.01348 33.4437 8.04236 33.4137 8.11637C33.3844 8.18863 33.3333 8.28564 33.2508 8.40937C33.0849 8.65816 32.8208 8.97283 32.4433 9.3566L33.2988 10.1981C33.7026 9.78759 34.0245 9.41216 34.2492 9.07501C34.4617 8.75632 34.643 8.39142 34.643 8.01953H33.443ZM32.4433 9.35666C32.0504 9.75621 31.7336 10.1096 31.5009 10.4139C31.2817 10.7005 31.0884 11.0047 31.0181 11.2975L32.185 11.5775C32.185 11.5775 32.1857 11.5745 32.1879 11.5682C32.19 11.562 32.1933 11.5531 32.1983 11.5417C32.2083 11.5183 32.2236 11.4873 32.246 11.4479C32.2915 11.3683 32.3591 11.2671 32.4542 11.1428C32.6447 10.8937 32.9236 10.5797 33.2989 10.198L32.4433 9.35666ZM31.0195 11.292C30.9847 11.4309 30.9657 11.6371 30.9515 11.858C30.9362 12.0968 30.9237 12.4082 30.9139 12.7892C30.8941 13.5521 30.8844 14.6128 30.8844 15.9688H32.0844C32.0844 14.6164 32.0941 13.5677 32.1135 12.8202C32.1231 12.446 32.1351 12.1519 32.1491 11.935C32.156 11.8264 32.1633 11.7413 32.1704 11.6774C32.1781 11.6082 32.1838 11.5824 32.1836 11.583L31.0195 11.292ZM30.8846 15.9519L30.6307 25.0144L31.8302 25.0481L32.0841 15.9856L30.8846 15.9519ZM30.6306 25.0176L30.6111 25.877L31.8108 25.9043L31.8303 25.0449L30.6306 25.0176ZM30.6116 25.8634L30.5725 26.7228L31.7713 26.7772L31.8103 25.9179L30.6116 25.8634Z" fill="#503E2E" mask="url(#path-1-outside-1_364_160)"/>
</svg>
