<svg width="21" height="20" viewBox="0 0 21 20" fill="none" xmlns="http://www.w3.org/2000/svg">
<path d="M10.9199 10.07C8.58993 5.56 10.4199 1.59 11.4499 0C6.08993 0.19 1.79993 4.58 1.79993 9.99C1.79993 10.13 1.81993 10.27 1.81993 10.41C2.43993 10.14 3.10993 9.99 3.81993 9.99C5.47993 9.99 6.99993 10.82 7.91993 12.14C9.58993 12.62 10.8199 14.16 10.8199 15.99C10.8199 17.51 9.94993 18.82 8.69993 19.5C9.67993 19.82 10.7299 20 11.8099 20C15.3099 20 18.3899 18.2 20.1799 15.48C17.8199 15.71 13.1999 14.51 10.9199 10.07Z" fill="#5B4C3A"/>
<path d="M6.81995 13.99H6.63995C6.21995 12.83 5.11995 11.99 3.81995 11.99C2.15995 11.99 0.819946 13.33 0.819946 14.99C0.819946 16.65 2.15995 17.99 3.81995 17.99H6.81995C7.91995 17.99 8.81995 17.09 8.81995 15.99C8.81995 14.89 7.91995 13.99 6.81995 13.99Z" fill="#5B4C3A"/>
</svg>
