<svg width="25" height="24" viewBox="0 0 25 24" fill="none" xmlns="http://www.w3.org/2000/svg">
<path d="M6.78364 4.70137L4.82 2.73973L3.28182 4.28493L5.23455 6.24657L6.78364 4.70137ZM3.77273 10.9041H0.5V13.0959H3.77273V10.9041ZM13.5909 0H11.4091V3.23288H13.5909V0ZM21.7182 4.28493L20.18 2.73973L18.2273 4.70137L19.7655 6.24657L21.7182 4.28493ZM18.2164 19.2986L20.1691 21.2712L21.7073 19.726L19.7436 17.7644L18.2164 19.2986ZM21.2273 10.9041V13.0959H24.5V10.9041H21.2273ZM12.5 5.42466C8.88909 5.42466 5.95455 8.3726 5.95455 12C5.95455 15.6274 8.88909 18.5753 12.5 18.5753C16.1109 18.5753 19.0455 15.6274 19.0455 12C19.0455 8.3726 16.1109 5.42466 12.5 5.42466ZM11.4091 24H13.5909V20.7671H11.4091V24ZM3.28182 19.7151L4.82 21.2603L6.77273 19.2877L5.23455 17.7425L3.28182 19.7151Z" fill="#4F3D2C"/>
</svg>
